HIERARCHY
ROOT hip
{
  OFFSET 73.1636 68.5186 17.5853
  CHANNELS 6 Xposition Yposition Zposition Zrotation Xrotation Yrotation
  JOINT abdomen
  {
    OFFSET 0 20.6881 -0.73152
    CHANNELS 3 Zrotation Xrotation Yrotation
    JOINT chest
    {
      OFFSET 0 11.7043 -0.48768
      CHANNELS 3 Zrotation Xrotation Yrotation
      JOINT neck
      {
        OFFSET 0 22.1894 -2.19456
        CHANNELS 3 Zrotation Xrotation Yrotation
        JOINT head
        {
          OFFSET -0.24384 7.07133 1.2192
          CHANNELS 3 Zrotation Xrotation Yrotation
          JOINT leftEye
          {
            OFFSET 4.14528 8.04674 8.04672
            CHANNELS 3 Zrotation Xrotation Yrotation
            End Site
            {
              OFFSET 1 0 0
            }
          }
          JOINT rightEye
          {
            OFFSET -3.6576 8.04674 8.04672
            CHANNELS 3 Zrotation Xrotation Yrotation
            End Site
            {
              OFFSET 1 0 0
            }
          }
        }
      }
      JOINT rCollar
      {
        OFFSET -2.68224 19.2634 -4.8768
        CHANNELS 3 Zrotation Xrotation Yrotation
        JOINT rShldr
        {
          OFFSET -8.77824 -1.95073 1.46304
          CHANNELS 3 Zrotation Xrotation Yrotation
          JOINT rForeArm
          {
            OFFSET -28.1742 -1.7115 0.48768
            CHANNELS 3 Zrotation Xrotation Yrotation
            JOINT rHand
            {
              OFFSET -22.5879 0.773209 7.07136
              CHANNELS 3 Zrotation Xrotation Yrotation
              JOINT rThumb1
              {
                OFFSET -1.2192 -0.487915 3.41376
                CHANNELS 3 Zrotation Xrotation Yrotation
                JOINT rThumb2
                {
                  OFFSET -3.37035 -0.52449 3.41376
                  CHANNELS 3 Zrotation Xrotation Yrotation
                  End Site
                  {
                    OFFSET -1.78271 -1.18214 1.43049
                  }
                }
              }
              JOINT rIndex1
              {
                OFFSET -7.75947 0.938293 5.60832
                CHANNELS 3 Zrotation Xrotation Yrotation
                JOINT rIndex2
                {
                  OFFSET -2.54057 -0.884171 1.56538
                  CHANNELS 3 Zrotation Xrotation Yrotation
                  End Site
                  {
                    OFFSET -1.62519 -0.234802 1.16502
                  }
                }
              }
              JOINT rMid1
              {
                OFFSET -8.24714 1.18213 3.41376
                CHANNELS 3 Zrotation Xrotation Yrotation
                JOINT rMid2
                {
                  OFFSET -3.10165 -0.590103 1.0647
                  CHANNELS 3 Zrotation Xrotation Yrotation
                  End Site
                  {
                    OFFSET -2.48547 -0.328903 0.83742
                  }
                }
              }
              JOINT rRing1
              {
                OFFSET -8.82822 0.546677 1.51678
                CHANNELS 3 Zrotation Xrotation Yrotation
                JOINT rRing2
                {
                  OFFSET -2.60934 -0.819778 -0.0198488
                  CHANNELS 3 Zrotation Xrotation Yrotation
                  End Site
                  {
                    OFFSET -2.33842 -0.294052 0.168128
                  }
                }
              }
              JOINT rPinky1
              {
                OFFSET -8.27202 -0.0477905 -0.4584
                CHANNELS 3 Zrotation Xrotation Yrotation
                JOINT rPinky2
                {
                  OFFSET -1.82734 -0.647385 -0.700984
                  CHANNELS 3 Zrotation Xrotation Yrotation
                  End Site
                  {
                    OFFSET -1.69225 -0.51767 -0.607171
                  }
                }
              }
            }
          }
        }
      }
      JOINT lCollar
      {
        OFFSET 2.68224 19.2634 -4.8768
        CHANNELS 3 Zrotation Xrotation Yrotation
        JOINT lShldr
        {
          OFFSET 8.77824 -1.95073 1.46304
          CHANNELS 3 Zrotation Xrotation Yrotation
          JOINT lForeArm
          {
            OFFSET 28.1742 -1.7115 0.48768
            CHANNELS 3 Zrotation Xrotation Yrotation
            JOINT lHand
            {
              OFFSET 22.5879 0.773209 7.07136
              CHANNELS 3 Zrotation Xrotation Yrotation
              JOINT lThumb1
              {
                OFFSET 1.2192 -0.487915 3.41376
                CHANNELS 3 Zrotation Xrotation Yrotation
                JOINT lThumb2
                {
                  OFFSET 3.37035 -0.52449 3.41376
                  CHANNELS 3 Zrotation Xrotation Yrotation
                  End Site
                  {
                    OFFSET 1.78271 -1.18214 1.43049
                  }
                }
              }
              JOINT lIndex1
              {
                OFFSET 7.75947 0.938293 5.60832
                CHANNELS 3 Zrotation Xrotation Yrotation
                JOINT lIndex2
                {
                  OFFSET 2.54057 -0.884171 1.56538
                  CHANNELS 3 Zrotation Xrotation Yrotation
                  End Site
                  {
                    OFFSET 1.62519 -0.234802 1.16502
                  }
                }
              }
              JOINT lMid1
              {
                OFFSET 8.24714 1.18213 3.41376
                CHANNELS 3 Zrotation Xrotation Yrotation
                JOINT lMid2
                {
                  OFFSET 3.10165 -0.590103 1.0647
                  CHANNELS 3 Zrotation Xrotation Yrotation
                  End Site
                  {
                    OFFSET 2.48547 -0.328903 0.83742
                  }
                }
              }
              JOINT lRing1
              {
                OFFSET 8.82822 0.546677 1.51678
                CHANNELS 3 Zrotation Xrotation Yrotation
                JOINT lRing2
                {
                  OFFSET 2.60934 -0.819778 -0.0198488
                  CHANNELS 3 Zrotation Xrotation Yrotation
                  End Site
                  {
                    OFFSET 2.33842 -0.294052 0.168128
                  }
                }
              }
              JOINT lPinky1
              {
                OFFSET 8.27202 -0.0477905 -0.4584
                CHANNELS 3 Zrotation Xrotation Yrotation
                JOINT lPinky2
                {
                  OFFSET 1.82734 -0.647385 -0.700984
                  CHANNELS 3 Zrotation Xrotation Yrotation
                  End Site
                  {
                    OFFSET 1.69225 -0.51767 -0.607171
                  }
                }
              }
            }
          }
        }
      }
    }
  }
  JOINT rButtock
  {
    OFFSET -8.77824 4.35084 1.2192
    CHANNELS 3 Zrotation Xrotation Yrotation
    JOINT rThigh
    {
      OFFSET 0 -1.70687 -2.19456
      CHANNELS 3 Zrotation Xrotation Yrotation
      JOINT rShin
      {
        OFFSET 0 -36.8199 0.73152
        CHANNELS 3 Zrotation Xrotation Yrotation
        JOINT rFoot
        {
          OFFSET 0.73152 -45.1104 -5.12064
          CHANNELS 3 Zrotation Xrotation Yrotation
          End Site
          {
            OFFSET -1.1221 -3.69964 12.103
          }
        }
      }
    }
  }
  JOINT lButtock
  {
    OFFSET 8.77824 4.35084 1.2192
    CHANNELS 3 Zrotation Xrotation Yrotation
    JOINT lThigh
    {
      OFFSET 0 -1.70687 -2.19456
      CHANNELS 3 Zrotation Xrotation Yrotation
      JOINT lShin
      {
        OFFSET 0 -36.8199 0.73152
        CHANNELS 3 Zrotation Xrotation Yrotation
        JOINT lFoot
        {
          OFFSET -0.73152 -45.1104 -5.12064
          CHANNELS 3 Zrotation Xrotation Yrotation
          End Site
          {
            OFFSET 1.1221 -3.69964 12.103
          }
        }
      }
    }
  }
}
MOTION
Frames:	4
Frame Time:	0.00833333
22.8034 85.2022 195.563 -0.457842 -0.000986307 0.00783586 0.602232 -0.00285578 0.0171681 0.166044 -0.00431806 0.0287692 1.53099e-014 0 -1.42876e-016 4.5969e-014 3.18055e-015 -3.78933e-016 -0 0 0 -0 0 0 7.6024e-015 -6.7944e-018 4.96962e-017 1.63022e-013 5.59082e-017 3.97569e-016 2.76609e-012 -8.27938e-013 -4.77083e-014 3.16227e-011 8.08507e-013 -2.25819e-013 7.45947e-011 -4.77379e-014 -5.78861e-013 1.28818e-010 -8.26944e-014 -1.01937e-012 7.46015e-011 -4.69132e-014 -5.82042e-013 7.73091 5.47488 0.417314 7.45944e-011 -4.79071e-014 -5.85222e-013 2.90554 0.965183 0.102902 7.46051e-011 -4.7112e-014 -5.85222e-013 10.2786 0.731801 0.0259123 7.45929e-011 -4.73108e-014 -5.82042e-013 2.22167 -0.733487 -0.20892 7.60514e-015 -8.3474e-018 -1.49089e-016 1.58704e-013 -1.30452e-016 -1.59028e-015 2.76022e-012 8.2277e-013 -3.49861e-014 3.16198e-011 -8.49929e-013 -2.3218e-013 7.45815e-011 -6.25526e-014 -5.88403e-013 1.28812e-010 -1.04958e-013 -1.01301e-012 7.4578e-011 -6.04305e-014 -5.88403e-013 -7.73091 5.47488 -0.417314 7.45815e-011 -6.26172e-014 -5.94764e-013 -2.90554 0.965183 -0.102902 7.457e-011 -6.20208e-014 -5.87607e-013 -10.2786 0.731801 -0.0259123 7.45866e-011 -6.20208e-014 -5.91583e-013 -2.22167 -0.733487 0.20892 -2.03217e-016 0 -3.88251e-019 0.985596 -4.60216 -0.0812469 -0.00202344 2.78413 -0.00804825 -0.532781 1.81805 0.0982466 2.03217e-016 0 3.88251e-019 -0.0700232 -2.29254 0.0218579 0.00846566 -1.39933 0.0723251 0.52603 3.69177 -0.136065 
22.2272 83.7055 189.038 -1.31608 1.46888 48.7362 -0.811355 0.59187 -1.46481 0.855857 -0.192314 -0.391795 -0.301829 0.372362 -1.12166 -0.301908 -3.46865 -2.15127 -0 0 0 -0 0 0 -3.08011e-014 -6.63393e-016 -3.63989e-014 22.6796 -2.53484 -4.54127 -3.37974 -1.39958 5.41739 0.0270155 3.64811 0.508963 3.67593e-010 -5.30287e-011 -2.84042e-010 6.31683e-010 -9.38069e-011 -4.95037e-010 3.67599e-010 -5.30269e-011 -2.8405e-010 7.73091 5.47488 0.417314 3.67593e-010 -5.30281e-011 -2.84048e-010 2.90554 0.965183 0.102902 3.67601e-010 -5.30281e-011 -2.84048e-010 10.2786 0.731801 0.0259123 3.67591e-010 -5.30282e-011 -2.84043e-010 2.22167 -0.733487 -0.20892 -3.08025e-014 -6.64557e-016 -3.66113e-014 -19.9662 9.16811 -4.77073 6.45699 -3.57793 -9.28856 -0.0243082 -3.46008 0.483086 3.85619e-010 8.37114e-010 -2.75849e-011 6.66912e-010 1.45157e-009 -4.49329e-011 3.85614e-010 8.37114e-010 -2.75831e-011 -7.73091 5.47488 -0.417314 3.85617e-010 8.3711e-010 -2.75895e-011 -2.90554 0.965183 -0.102902 3.85608e-010 8.37112e-010 -2.7584e-011 -10.2786 0.731801 -0.0259123 3.85624e-010 8.37113e-010 -2.75879e-011 -2.22167 -0.733487 0.20892 -2.03217e-016 0 -3.88251e-019 -1.15592 -13.7928 2.76006 -0.024093 7.28005 -0.0073803 -0.751627 0.768738 -4.24957 2.03217e-016 0 3.88251e-019 -1.70155 0.0551258 -0.782442 0.00799896 2.51657 0.00766747 0.556144 0.0984684 0.535484 
22.2388 83.7574 188.106 -3.29717 -0.81244 100.193 -2.27308 1.21953 -3.02357 1.58054 -0.40044 -0.833808 -0.602944 0.764237 -2.30604 -0.919375 -7.11923 -4.45061 -0 0 0 -0 0 0 -7.51159e-014 9.64681e-017 -7.90076e-014 46.214 -5.13923 -9.37492 -6.66188 -2.83471 11.1477 -0.0154213 7.49457 1.05263 7.11981e-010 -1.12671e-010 -6.28962e-010 1.22259e-009 -1.99462e-010 -1.09598e-009 7.11985e-010 -1.12668e-010 -6.28975e-010 7.73091 5.47488 0.417314 7.1198e-010 -1.1267e-010 -6.28969e-010 2.90554 0.965183 0.102902 7.11985e-010 -1.1267e-010 -6.28967e-010 10.2786 0.731801 0.0259123 7.11978e-010 -1.1267e-010 -6.2896e-010 2.22167 -0.733487 -0.20892 -7.51206e-014 9.56915e-017 -7.92343e-014 -39.3586 18.6083 -10.2082 12.0198 -7.02988 -19.1984 0.0138615 -7.11007 0.998689 7.6207e-010 1.83094e-009 -6.40409e-011 1.31824e-009 3.17507e-009 -1.04651e-010 7.62062e-010 1.83094e-009 -6.40371e-011 -7.73091 5.47488 -0.417314 7.62066e-010 1.83093e-009 -6.40436e-011 -2.90554 0.965183 -0.102902 7.6206e-010 1.83094e-009 -6.40397e-011 -10.2786 0.731801 -0.0259123 7.62074e-010 1.83094e-009 -6.40436e-011 -2.22167 -0.733487 0.20892 -2.03217e-016 0 -3.88251e-019 -2.33208 -23.4247 6.05534 -0.0478299 12.0896 -0.00618694 -1.14558 -0.289008 -8.78448 2.03217e-016 0 3.88251e-019 -3.36407 2.47913 -1.64705 0.0172386 6.70166 -0.0622604 0.685891 -3.75009 1.2893 
22.2272 83.8014 187.174 -1.7477 -5.54372 145.948 -3.5463 1.77658 -4.43068 2.2272 -0.568188 -1.23298 -0.86177 1.11537 -3.36554 -1.69628 -10.3468 -6.54892 -0 0 0 -0 0 0 -1.07608e-013 -1.97659e-015 -1.09296e-013 66.8375 -7.41299 -13.7274 -9.35539 -4.04885 16.2891 -0.116431 10.9408 1.55201 9.5359e-010 -1.58991e-010 -8.50968e-010 1.63741e-009 -2.81255e-010 -1.48307e-009 9.53594e-010 -1.58987e-010 -8.50985e-010 7.73091 5.47488 0.417314 9.53589e-010 -1.58989e-010 -8.50975e-010 2.90554 0.965183 0.102902 9.53592e-010 -1.5899e-010 -8.50973e-010 10.2786 0.731801 0.0259123 9.53586e-010 -1.5899e-010 -8.50964e-010 2.22167 -0.733487 -0.20892 -1.07618e-013 -1.97698e-015 -1.09536e-013 -54.912 26.6959 -15.8566 16.0029 -9.60704 -28.2416 0.104574 -10.3773 1.47068 1.00769e-009 2.51147e-009 -8.15779e-011 1.74311e-009 4.35491e-009 -1.32773e-010 1.00768e-009 2.51146e-009 -8.15725e-011 -7.73091 5.47488 -0.417314 1.00769e-009 2.51145e-009 -8.1579e-011 -2.90554 0.965183 -0.102902 1.00768e-009 2.51146e-009 -8.15767e-011 -10.2786 0.731801 -0.0259123 1.0077e-009 2.51146e-009 -8.15806e-011 -2.22167 -0.733487 0.20892 -2.03217e-016 0 -3.88251e-019 -2.28912 -31.8514 9.67032 -0.0685382 16.2719 -0.0061305 -1.66343 -1.28989 -12.9473 2.03217e-016 0 3.88251e-019 -4.76647 4.74632 -2.39924 0.0338174 10.3484 -0.123638 0.870135 -7.08432 1.89247 
